<svg xmlns="http://www.w3.org/2000/svg" data-name="Layer 1" width="575.45508" height="668.31863"
     viewBox="-40 120 575.45508 668.31863" xmlns:xlink="http://www.w3.org/1999/xlink">
    <path
        d="M393.17569,607.597c21.92937-89.42732,65.38029-166.29182,137.3408-226.51415a20.24579,20.24579,0,0,1,27.77727-6.80757L729.36225,477.99792a20.24555,20.24555,0,0,1,6.80745,27.77714c-27.4664,91.76223-68.60463,171.3878-137.34068,226.51427a20.24537,20.24537,0,0,1-27.777,6.80761L399.98354,635.37428A20.24591,20.24591,0,0,1,393.17569,607.597Z"
        transform="translate(-312.27246 -115.84068)" fill="#f2f2f2"/>
    <path
        d="M423.58155,637.73515a20.24547,20.24547,0,0,1-6.8076-27.777c21.92927-89.42776,65.38032-166.2921,137.34054-226.51446a19.98448,19.98448,0,0,1,7.54552-7.12751l-3.36622-2.04122a20.24619,20.24619,0,0,0-27.77725,6.80728C458.55617,441.30474,415.10528,518.169,393.176,607.59672a20.24539,20.24539,0,0,0,6.80759,27.777L571.05177,739.09662a20.1556,20.1556,0,0,0,20.23173.32023Z"
        transform="translate(-312.27246 -115.84068)" opacity="0.2" style="isolation:isolate"/>
    <path
        d="M624.201,587.772l-114.829-69.18876a8.04378,8.04378,0,0,1,8.30255-13.77958l114.829,69.18876a8.04378,8.04378,0,0,1-8.30268,13.77942Z"
        transform="translate(-312.27246 -115.84068)" fill="#fff"/>
    <path
        d="M557.40068,496.02091l-25.26225-15.2215a8.04383,8.04383,0,0,1,8.2592-13.80574l.04348.02632,25.26225,15.22151a8.04377,8.04377,0,0,1-8.30268,13.77941Z"
        transform="translate(-312.27246 -115.84068)" fill="#fff"/>
    <path
        d="M605.95064,618.06109l-114.829-69.18876a8.04382,8.04382,0,0,1,8.28623-13.7895l.01632.00992,114.829,69.18876a8.04378,8.04378,0,0,1-8.30268,13.77942Z"
        transform="translate(-312.27246 -115.84068)" fill="#fff"/>
    <circle cx="326.51102" cy="307.93473" r="33.53921" fill="#FFDF36"/>
    <circle cx="268.69818" cy="595.63336" r="71.68503" fill="#fff"/>
    <path
        d="M580.97062,784.15932a72.68506,72.68506,0,1,1,72.68506-72.68555A72.76757,72.76757,0,0,1,580.97062,784.15932Zm0-143.37012a70.68506,70.68506,0,1,0,70.68506,70.68457A70.76475,70.76475,0,0,0,580.97062,640.7892Z"
        transform="translate(-312.27246 -115.84068)" fill="#3f3d56"/>
    <path
        d="M571.19132,748.78276a7.97166,7.97166,0,0,1-6.37854-3.19024L545.256,719.51639a7.97379,7.97379,0,1,1,12.75837-9.56813l12.7947,17.05832,32.86156-49.29169a7.97412,7.97412,0,1,1,13.26974,8.8465L577.82683,745.2317a7.97733,7.97733,0,0,1-6.41357,3.54846C571.33928,748.78146,571.2653,748.78276,571.19132,748.78276Z"
        transform="translate(-312.27246 -115.84068)" fill="#FFDF36"/>

</svg>
